<?xml version="1.0" standalone="no"?>
<!DOCTYPE svg PUBLIC "-//W3C//DTD SVG 20010904//EN"
 "http://www.w3.org/TR/2001/REC-SVG-20010904/DTD/svg10.dtd">
<svg version="1.0" xmlns="http://www.w3.org/2000/svg"
 width="537.000000pt" height="130.000000pt" viewBox="0 0 537.000000 130.000000"
 preserveAspectRatio="xMidYMid meet">

<g transform="translate(0.000000,130.000000) scale(0.100000,-0.100000)"
fill="#000000" stroke="none">
<path d="M60 645 l0 -367 188 4 c228 6 261 15 342 97 41 41 60 70 73 111 52
162 19 344 -79 430 -21 18 -63 45 -94 59 -52 24 -65 26 -242 29 l-188 4 0
-367z m360 193 c66 -34 85 -79 85 -198 0 -107 -13 -143 -67 -181 -25 -18 -49
-24 -115 -27 l-83 -5 0 217 0 216 68 0 c51 0 79 -6 112 -22z"/>
<path d="M770 645 l0 -365 85 0 85 0 0 365 0 365 -85 0 -85 0 0 -365z"/>
<path d="M1050 645 l0 -365 90 0 90 0 0 130 0 130 90 0 c127 0 135 -9 145
-153 l7 -107 89 0 89 0 -6 58 c-23 221 -21 215 -60 251 l-36 34 30 23 c86 68
80 221 -11 301 -60 52 -115 63 -329 63 l-188 0 0 -365z m384 194 c21 -16 26
-29 26 -64 0 -35 -5 -48 -26 -64 -23 -18 -41 -21 -115 -21 l-89 0 0 85 0 85
89 0 c74 0 92 -3 115 -21z"/>
<path d="M1670 935 l0 -75 105 0 105 0 0 -290 0 -290 90 0 90 0 0 290 0 290
105 0 104 0 3 56 3 56 118 -208 117 -207 0 -139 0 -138 85 0 85 0 0 142 0 141
123 218 c67 120 125 219 128 219 3 0 45 -145 92 -322 48 -178 92 -340 98 -360
10 -38 10 -38 62 -38 l52 0 69 275 c37 151 70 275 71 275 1 0 34 -124 71 -275
l69 -275 52 0 c52 0 52 0 63 38 5 20 50 184 98 365 l89 327 -48 0 c-46 0 -48
-2 -57 -32 -5 -18 -37 -147 -73 -285 -35 -139 -66 -253 -69 -253 -3 0 -37 127
-76 283 l-70 282 -49 0 -49 0 -70 -282 c-39 -156 -73 -283 -76 -283 -3 0 -34
114 -69 253 -36 138 -68 267 -73 285 l-9 32 -144 0 -144 0 -62 -117 c-34 -65
-68 -126 -74 -136 -11 -16 -22 -2 -86 117 l-74 136 -387 0 -388 0 0 -75z"/>
<path d="M3900 645 l0 -365 45 0 45 0 0 365 0 365 -45 0 -45 0 0 -365z"/>
<path d="M4140 645 l0 -365 45 0 45 0 2 299 3 299 176 -297 175 -296 62 -3 62
-3 0 366 0 365 -45 0 -45 0 -2 -305 -3 -305 -180 305 -180 305 -57 0 -58 0 0
-365z"/>
<path d="M4860 645 l0 -365 230 0 230 0 0 45 0 45 -185 0 -185 0 0 115 0 115
175 0 175 0 0 45 0 45 -175 0 -175 0 0 115 0 115 180 0 180 0 0 45 0 45 -225
0 -225 0 0 -365z"/>
</g>
</svg>
