<svg width="683" height="93" viewBox="0 0 683 93" fill="none" xmlns="http://www.w3.org/2000/svg">
<mask id="path-1-outside-1_2599_17" maskUnits="userSpaceOnUse" x="0" y="0" width="683" height="93" fill="black">
<rect fill="white" width="683" height="93"/>
<path d="M1.8025 92V1.12H32.0105C46.5172 1.12 57.6532 5.08799 65.4185 13.024C73.2692 20.8747 77.1945 32.096 77.1945 46.688C77.1945 61.1947 73.3545 72.3733 65.6745 80.224C57.9945 88.0747 47.0292 92 32.7785 92H1.8025ZM18.4425 77.536H32.0105C41.4825 77.536 48.5225 74.976 53.1305 69.856C57.7385 64.736 60.0425 57.0133 60.0425 46.688C60.0425 36.192 57.7385 28.384 53.1305 23.264C48.5225 18.144 41.4825 15.584 32.0105 15.584H18.4425V77.536ZM90.9275 92V1.12H107.568V92H90.9275ZM126.053 92V1.12H164.069C170.639 1.12 176.314 2.22933 181.093 4.448C185.871 6.66666 189.583 9.82399 192.229 13.92C194.874 18.016 196.197 22.8373 196.197 28.384C196.197 32.5653 195.301 36.2773 193.509 39.52C191.717 42.7627 189.285 45.3653 186.213 47.328C183.226 49.2907 179.898 50.4853 176.229 50.912L175.589 49.632C181.477 49.632 185.999 50.9547 189.157 53.6C192.399 56.2453 194.234 60.2987 194.661 65.76L196.965 92H180.069L178.149 68.192C177.893 64.608 176.741 61.9627 174.693 60.256C172.645 58.5493 169.231 57.696 164.453 57.696H142.693V92H126.053ZM142.693 43.104H163.045C168.079 43.104 172.005 41.9093 174.821 39.52C177.637 37.1307 179.045 33.76 179.045 29.408C179.045 24.9707 177.594 21.5573 174.693 19.168C171.877 16.7787 167.738 15.584 162.277 15.584H142.693V43.104ZM230.869 92V15.584H203.221V1.12H275.029V15.584H247.509V92H230.869ZM308.536 92V56.16L276.791 1.12H295.48L316.984 39.776L338.36 1.12H357.048L325.304 56.16V92H308.536ZM385.244 92L360.924 1.12H378.46L395.1 68.96L411.868 1.12H427.356L444.124 68.96L460.636 1.12H478.3L453.98 92H435.548L419.676 29.792L403.804 92H385.244ZM490.053 92V1.12H506.693V92H490.053ZM525.178 92V1.12H544.634L583.802 69.472V1.12H600.442V92H580.474L541.818 25.568V92H525.178ZM618.928 92V1.12H680.112V15.584H635.568V39.264H678.576V53.6H635.568V77.536H681.136V92H618.928Z"/>
</mask>
<path d="M1.8025 92V1.12H32.0105C46.5172 1.12 57.6532 5.08799 65.4185 13.024C73.2692 20.8747 77.1945 32.096 77.1945 46.688C77.1945 61.1947 73.3545 72.3733 65.6745 80.224C57.9945 88.0747 47.0292 92 32.7785 92H1.8025ZM18.4425 77.536H32.0105C41.4825 77.536 48.5225 74.976 53.1305 69.856C57.7385 64.736 60.0425 57.0133 60.0425 46.688C60.0425 36.192 57.7385 28.384 53.1305 23.264C48.5225 18.144 41.4825 15.584 32.0105 15.584H18.4425V77.536ZM90.9275 92V1.12H107.568V92H90.9275ZM126.053 92V1.12H164.069C170.639 1.12 176.314 2.22933 181.093 4.448C185.871 6.66666 189.583 9.82399 192.229 13.92C194.874 18.016 196.197 22.8373 196.197 28.384C196.197 32.5653 195.301 36.2773 193.509 39.52C191.717 42.7627 189.285 45.3653 186.213 47.328C183.226 49.2907 179.898 50.4853 176.229 50.912L175.589 49.632C181.477 49.632 185.999 50.9547 189.157 53.6C192.399 56.2453 194.234 60.2987 194.661 65.76L196.965 92H180.069L178.149 68.192C177.893 64.608 176.741 61.9627 174.693 60.256C172.645 58.5493 169.231 57.696 164.453 57.696H142.693V92H126.053ZM142.693 43.104H163.045C168.079 43.104 172.005 41.9093 174.821 39.52C177.637 37.1307 179.045 33.76 179.045 29.408C179.045 24.9707 177.594 21.5573 174.693 19.168C171.877 16.7787 167.738 15.584 162.277 15.584H142.693V43.104ZM230.869 92V15.584H203.221V1.12H275.029V15.584H247.509V92H230.869ZM308.536 92V56.16L276.791 1.12H295.48L316.984 39.776L338.36 1.12H357.048L325.304 56.16V92H308.536ZM385.244 92L360.924 1.12H378.46L395.1 68.96L411.868 1.12H427.356L444.124 68.96L460.636 1.12H478.3L453.98 92H435.548L419.676 29.792L403.804 92H385.244ZM490.053 92V1.12H506.693V92H490.053ZM525.178 92V1.12H544.634L583.802 69.472V1.12H600.442V92H580.474L541.818 25.568V92H525.178ZM618.928 92V1.12H680.112V15.584H635.568V39.264H678.576V53.6H635.568V77.536H681.136V92H618.928Z" fill="white"/>
<path d="M1.8025 92H0.802501V93H1.8025V92ZM1.8025 1.12V0.119995H0.802501V1.12H1.8025ZM65.4185 13.024L64.7037 13.7234L64.7114 13.7311L65.4185 13.024ZM65.6745 80.224L66.3893 80.9233L66.3893 80.9233L65.6745 80.224ZM18.4425 77.536H17.4425V78.536H18.4425V77.536ZM53.1305 69.856L53.8738 70.525L53.8738 70.525L53.1305 69.856ZM53.1305 23.264L53.8738 22.595L53.8738 22.595L53.1305 23.264ZM18.4425 15.584V14.584H17.4425V15.584H18.4425ZM1.8025 92H2.8025V1.12H1.8025H0.802501V92H1.8025ZM1.8025 1.12V2.12H32.0105V1.12V0.119995H1.8025V1.12ZM32.0105 1.12V2.12C46.3343 2.12 57.1793 6.0335 64.7038 13.7234L65.4185 13.024L66.1333 12.3246C58.1271 4.14249 46.7001 0.119995 32.0105 0.119995V1.12ZM65.4185 13.024L64.7114 13.7311C72.3211 21.3408 76.1945 32.2747 76.1945 46.688H77.1945H78.1945C78.1945 31.9173 74.2172 20.4085 66.1256 12.3169L65.4185 13.024ZM77.1945 46.688H76.1945C76.1945 61.0199 72.4041 71.9148 64.9597 79.5247L65.6745 80.224L66.3893 80.9233C74.3049 72.8318 78.1945 61.3694 78.1945 46.688H77.1945ZM65.6745 80.224L64.9597 79.5247C57.5193 87.1304 46.8439 91 32.7785 91V92V93C47.2144 93 58.4697 89.0189 66.3893 80.9233L65.6745 80.224ZM32.7785 92V91H1.8025V92V93H32.7785V92ZM18.4425 77.536V78.536H32.0105V77.536V76.536H18.4425V77.536ZM32.0105 77.536V78.536C41.6555 78.536 49.0131 75.9258 53.8738 70.525L53.1305 69.856L52.3872 69.187C48.032 74.0262 41.3095 76.536 32.0105 76.536V77.536ZM53.1305 69.856L53.8738 70.525C58.7128 65.1483 61.0425 57.1404 61.0425 46.688H60.0425H59.0425C59.0425 56.8863 56.7642 64.3237 52.3872 69.187L53.1305 69.856ZM60.0425 46.688H61.0425C61.0425 36.0701 58.715 27.9742 53.8738 22.595L53.1305 23.264L52.3872 23.933C56.762 28.7938 59.0425 36.3139 59.0425 46.688H60.0425ZM53.1305 23.264L53.8738 22.595C49.0131 17.1942 41.6555 14.584 32.0105 14.584V15.584V16.584C41.3095 16.584 48.032 19.0938 52.3872 23.933L53.1305 23.264ZM32.0105 15.584V14.584H18.4425V15.584V16.584H32.0105V15.584ZM18.4425 15.584H17.4425V77.536H18.4425H19.4425V15.584H18.4425ZM90.9275 92H89.9275V93H90.9275V92ZM90.9275 1.12V0.119995H89.9275V1.12H90.9275ZM107.568 1.12H108.568V0.119995H107.568V1.12ZM107.568 92V93H108.568V92H107.568ZM90.9275 92H91.9275V1.12H90.9275H89.9275V92H90.9275ZM90.9275 1.12V2.12H107.568V1.12V0.119995H90.9275V1.12ZM107.568 1.12H106.568V92H107.568H108.568V1.12H107.568ZM107.568 92V91H90.9275V92V93H107.568V92ZM126.053 92H125.053V93H126.053V92ZM126.053 1.12V0.119995H125.053V1.12H126.053ZM181.093 4.448L180.671 5.35501L180.671 5.35501L181.093 4.448ZM192.229 13.92L191.388 14.4625L191.388 14.4625L192.229 13.92ZM193.509 39.52L194.384 40.0037L194.384 40.0037L193.509 39.52ZM186.213 47.328L185.674 46.4852L185.663 46.4923L186.213 47.328ZM176.229 50.912L175.334 51.3592L175.648 51.9863L176.344 51.9053L176.229 50.912ZM175.589 49.632V48.632H173.97L174.694 50.0792L175.589 49.632ZM189.157 53.6L188.514 54.3666L188.524 54.3749L189.157 53.6ZM194.661 65.76L193.663 65.8379L193.664 65.8475L194.661 65.76ZM196.965 92V93H198.056L197.961 91.9125L196.965 92ZM180.069 92L179.072 92.0804L179.146 93H180.069V92ZM178.149 68.192L177.151 68.2632L177.152 68.2724L178.149 68.192ZM174.693 60.256L174.052 61.0242L174.052 61.0242L174.693 60.256ZM142.693 57.696V56.696H141.693V57.696H142.693ZM142.693 92V93H143.693V92H142.693ZM142.693 43.104H141.693V44.104H142.693V43.104ZM174.693 19.168L174.046 19.9305L174.051 19.9353L174.057 19.9399L174.693 19.168ZM142.693 15.584V14.584H141.693V15.584H142.693ZM126.053 92H127.053V1.12H126.053H125.053V92H126.053ZM126.053 1.12V2.12H164.069V1.12V0.119995H126.053V1.12ZM164.069 1.12V2.12C170.529 2.12 176.053 3.21079 180.671 5.35501L181.093 4.448L181.514 3.54099C176.575 1.24787 170.75 0.119995 164.069 0.119995V1.12ZM181.093 4.448L180.671 5.35501C185.293 7.50082 188.854 10.5379 191.388 14.4625L192.229 13.92L193.069 13.3775C190.313 9.11007 186.449 5.8325 181.514 3.54099L181.093 4.448ZM192.229 13.92L191.388 14.4625C193.916 18.3754 195.197 23.0026 195.197 28.384H196.197H197.197C197.197 22.6721 195.832 17.6566 193.069 13.3775L192.229 13.92ZM196.197 28.384H195.197C195.197 32.4182 194.333 35.9599 192.633 39.0363L193.509 39.52L194.384 40.0037C196.268 36.5947 197.197 32.7124 197.197 28.384H196.197ZM193.509 39.52L192.633 39.0363C190.921 42.1356 188.603 44.6139 185.674 46.4853L186.213 47.328L186.751 48.1707C189.966 46.1168 192.513 43.3897 194.384 40.0037L193.509 39.52ZM186.213 47.328L185.663 46.4923C182.811 48.3664 179.633 49.5094 176.113 49.9187L176.229 50.912L176.344 51.9053C180.163 51.4613 183.64 50.2149 186.762 48.1637L186.213 47.328ZM176.229 50.912L177.123 50.4648L176.483 49.1848L175.589 49.632L174.694 50.0792L175.334 51.3592L176.229 50.912ZM175.589 49.632V50.632C181.341 50.632 185.601 51.9253 188.514 54.3665L189.157 53.6L189.799 52.8335C186.398 49.984 181.612 48.632 175.589 48.632V49.632ZM189.157 53.6L188.524 54.3749C191.495 56.7986 193.251 60.5608 193.664 65.8379L194.661 65.76L195.657 65.6821C195.216 60.0365 193.303 55.6921 189.789 52.8251L189.157 53.6ZM194.661 65.76L193.664 65.8475L195.968 92.0875L196.965 92L197.961 91.9125L195.657 65.6725L194.661 65.76ZM196.965 92V91H180.069V92V93H196.965V92ZM180.069 92L181.065 91.9196L179.145 68.1116L178.149 68.192L177.152 68.2724L179.072 92.0804L180.069 92ZM178.149 68.192L179.146 68.1208C178.878 64.3632 177.654 61.4226 175.333 59.4878L174.693 60.256L174.052 61.0242C175.827 62.5027 176.907 64.8528 177.151 68.2632L178.149 68.192ZM174.693 60.256L175.333 59.4878C173.009 57.5517 169.3 56.696 164.453 56.696V57.696V58.696C169.163 58.696 172.28 59.547 174.052 61.0242L174.693 60.256ZM164.453 57.696V56.696H142.693V57.696V58.696H164.453V57.696ZM142.693 57.696H141.693V92H142.693H143.693V57.696H142.693ZM142.693 92V91H126.053V92V93H142.693V92ZM142.693 43.104V44.104H163.045V43.104V42.104H142.693V43.104ZM163.045 43.104V44.104C168.23 44.104 172.414 42.873 175.467 40.2825L174.821 39.52L174.174 38.7575C171.595 40.9457 167.928 42.104 163.045 42.104V43.104ZM174.821 39.52L175.467 40.2825C178.548 37.6686 180.045 33.9957 180.045 29.408H179.045H178.045C178.045 33.5243 176.725 36.5927 174.174 38.7575L174.821 39.52ZM179.045 29.408H180.045C180.045 24.7318 178.503 21.0105 175.328 18.3961L174.693 19.168L174.057 19.9399C176.685 22.1042 178.045 25.2095 178.045 29.408H179.045ZM174.693 19.168L175.339 18.4055C172.274 15.8041 167.865 14.584 162.277 14.584V15.584V16.584C167.611 16.584 171.479 17.7532 174.046 19.9305L174.693 19.168ZM162.277 15.584V14.584H142.693V15.584V16.584H162.277V15.584ZM142.693 15.584H141.693V43.104H142.693H143.693V15.584H142.693ZM230.869 92H229.869V93H230.869V92ZM230.869 15.584H231.869V14.584H230.869V15.584ZM203.221 15.584H202.221V16.584H203.221V15.584ZM203.221 1.12V0.119995H202.221V1.12H203.221ZM275.029 1.12H276.029V0.119995H275.029V1.12ZM275.029 15.584V16.584H276.029V15.584H275.029ZM247.509 15.584V14.584H246.509V15.584H247.509ZM247.509 92V93H248.509V92H247.509ZM230.869 92H231.869V15.584H230.869H229.869V92H230.869ZM230.869 15.584V14.584H203.221V15.584V16.584H230.869V15.584ZM203.221 15.584H204.221V1.12H203.221H202.221V15.584H203.221ZM203.221 1.12V2.12H275.029V1.12V0.119995H203.221V1.12ZM275.029 1.12H274.029V15.584H275.029H276.029V1.12H275.029ZM275.029 15.584V14.584H247.509V15.584V16.584H275.029V15.584ZM247.509 15.584H246.509V92H247.509H248.509V15.584H247.509ZM247.509 92V91H230.869V92V93H247.509V92ZM308.536 92H307.536V93H308.536V92ZM308.536 56.16H309.536V55.8923L309.402 55.6604L308.536 56.16ZM276.791 1.12V0.119995H275.06L275.925 1.6196L276.791 1.12ZM295.48 1.12L296.353 0.633861L296.068 0.119995H295.48V1.12ZM316.984 39.776L316.11 40.2621L316.986 41.8377L317.859 40.2599L316.984 39.776ZM338.36 1.12V0.119995H337.77L337.484 0.636075L338.36 1.12ZM357.048 1.12L357.914 1.6196L358.779 0.119995H357.048V1.12ZM325.304 56.16L324.437 55.6604L324.304 55.8923V56.16H325.304ZM325.304 92V93H326.304V92H325.304ZM308.536 92H309.536V56.16H308.536H307.536V92H308.536ZM308.536 56.16L309.402 55.6604L277.658 0.620389L276.791 1.12L275.925 1.6196L307.669 56.6596L308.536 56.16ZM276.791 1.12V2.12H295.48V1.12V0.119995H276.791V1.12ZM295.48 1.12L294.606 1.60613L316.11 40.2621L316.984 39.776L317.857 39.2899L296.353 0.633861L295.48 1.12ZM316.984 39.776L317.859 40.2599L339.235 1.60391L338.36 1.12L337.484 0.636075L316.108 39.2921L316.984 39.776ZM338.36 1.12V2.12H357.048V1.12V0.119995H338.36V1.12ZM357.048 1.12L356.181 0.620389L324.437 55.6604L325.304 56.16L326.17 56.6596L357.914 1.6196L357.048 1.12ZM325.304 56.16H324.304V92H325.304H326.304V56.16H325.304ZM325.304 92V91H308.536V92V93H325.304V92ZM385.244 92L384.277 92.2585L384.476 93H385.244V92ZM360.924 1.12V0.119995H359.621L359.957 1.3785L360.924 1.12ZM378.46 1.12L379.431 0.881774L379.244 0.119995H378.46V1.12ZM395.1 68.96L394.128 69.1982L396.07 69.1999L395.1 68.96ZM411.868 1.12V0.119995H411.085L410.897 0.880046L411.868 1.12ZM427.356 1.12L428.326 0.880046L428.138 0.119995H427.356V1.12ZM444.124 68.96L443.153 69.1999L445.095 69.1965L444.124 68.96ZM460.636 1.12V0.119995H459.85L459.664 0.883503L460.636 1.12ZM478.3 1.12L479.266 1.3785L479.602 0.119995H478.3V1.12ZM453.98 92V93H454.747L454.946 92.2585L453.98 92ZM435.548 92L434.579 92.2472L434.771 93H435.548V92ZM419.676 29.792L420.644 29.5448L418.707 29.5448L419.676 29.792ZM403.804 92V93H404.58L404.772 92.2472L403.804 92ZM385.244 92L386.21 91.7415L361.89 0.861486L360.924 1.12L359.957 1.3785L384.277 92.2585L385.244 92ZM360.924 1.12V2.12H378.46V1.12V0.119995H360.924V1.12ZM378.46 1.12L377.488 1.35822L394.128 69.1982L395.1 68.96L396.071 68.7218L379.431 0.881774L378.46 1.12ZM395.1 68.96L396.07 69.1999L412.838 1.35994L411.868 1.12L410.897 0.880046L394.129 68.7201L395.1 68.96ZM411.868 1.12V2.12H427.356V1.12V0.119995H411.868V1.12ZM427.356 1.12L426.385 1.35994L443.153 69.1999L444.124 68.96L445.094 68.7201L428.326 0.880046L427.356 1.12ZM444.124 68.96L445.095 69.1965L461.607 1.35649L460.636 1.12L459.664 0.883503L443.152 68.7235L444.124 68.96ZM460.636 1.12V2.12H478.3V1.12V0.119995H460.636V1.12ZM478.3 1.12L477.333 0.861486L453.013 91.7415L453.98 92L454.946 92.2585L479.266 1.3785L478.3 1.12ZM453.98 92V91H435.548V92V93H453.98V92ZM435.548 92L436.516 91.7528L420.644 29.5448L419.676 29.792L418.707 30.0392L434.579 92.2472L435.548 92ZM419.676 29.792L418.707 29.5448L402.835 91.7528L403.804 92L404.772 92.2472L420.644 30.0392L419.676 29.792ZM403.804 92V91H385.244V92V93H403.804V92ZM490.053 92H489.053V93H490.053V92ZM490.053 1.12V0.119995H489.053V1.12H490.053ZM506.693 1.12H507.693V0.119995H506.693V1.12ZM506.693 92V93H507.693V92H506.693ZM490.053 92H491.053V1.12H490.053H489.053V92H490.053ZM490.053 1.12V2.12H506.693V1.12V0.119995H490.053V1.12ZM506.693 1.12H505.693V92H506.693H507.693V1.12H506.693ZM506.693 92V91H490.053V92V93H506.693V92ZM525.178 92H524.178V93H525.178V92ZM525.178 1.12V0.119995H524.178V1.12H525.178ZM544.634 1.12L545.501 0.622807L545.213 0.119995H544.634V1.12ZM583.802 69.472L582.934 69.9692L584.802 73.2284V69.472H583.802ZM583.802 1.12V0.119995H582.802V1.12H583.802ZM600.442 1.12H601.442V0.119995H600.442V1.12ZM600.442 92V93H601.442V92H600.442ZM580.474 92L579.609 92.5029L579.898 93H580.474V92ZM541.818 25.568L542.682 25.0651L540.818 21.8611V25.568H541.818ZM541.818 92V93H542.818V92H541.818ZM525.178 92H526.178V1.12H525.178H524.178V92H525.178ZM525.178 1.12V2.12H544.634V1.12V0.119995H525.178V1.12ZM544.634 1.12L543.766 1.61718L582.934 69.9692L583.802 69.472L584.669 68.9748L545.501 0.622807L544.634 1.12ZM583.802 69.472H584.802V1.12H583.802H582.802V69.472H583.802ZM583.802 1.12V2.12H600.442V1.12V0.119995H583.802V1.12ZM600.442 1.12H599.442V92H600.442H601.442V1.12H600.442ZM600.442 92V91H580.474V92V93H600.442V92ZM580.474 92L581.338 91.4971L542.682 25.0651L541.818 25.568L540.953 26.0709L579.609 92.5029L580.474 92ZM541.818 25.568H540.818V92H541.818H542.818V25.568H541.818ZM541.818 92V91H525.178V92V93H541.818V92ZM618.928 92H617.928V93H618.928V92ZM618.928 1.12V0.119995H617.928V1.12H618.928ZM680.112 1.12H681.112V0.119995H680.112V1.12ZM680.112 15.584V16.584H681.112V15.584H680.112ZM635.568 15.584V14.584H634.568V15.584H635.568ZM635.568 39.264H634.568V40.264H635.568V39.264ZM678.576 39.264H679.576V38.264H678.576V39.264ZM678.576 53.6V54.6H679.576V53.6H678.576ZM635.568 53.6V52.6H634.568V53.6H635.568ZM635.568 77.536H634.568V78.536H635.568V77.536ZM681.136 77.536H682.136V76.536H681.136V77.536ZM681.136 92V93H682.136V92H681.136ZM618.928 92H619.928V1.12H618.928H617.928V92H618.928ZM618.928 1.12V2.12H680.112V1.12V0.119995H618.928V1.12ZM680.112 1.12H679.112V15.584H680.112H681.112V1.12H680.112ZM680.112 15.584V14.584H635.568V15.584V16.584H680.112V15.584ZM635.568 15.584H634.568V39.264H635.568H636.568V15.584H635.568ZM635.568 39.264V40.264H678.576V39.264V38.264H635.568V39.264ZM678.576 39.264H677.576V53.6H678.576H679.576V39.264H678.576ZM678.576 53.6V52.6H635.568V53.6V54.6H678.576V53.6ZM635.568 53.6H634.568V77.536H635.568H636.568V53.6H635.568ZM635.568 77.536V78.536H681.136V77.536V76.536H635.568V77.536ZM681.136 77.536H680.136V92H681.136H682.136V77.536H681.136ZM681.136 92V91H618.928V92V93H681.136V92Z" fill="white" mask="url(#path-1-outside-1_2599_17)"/>
</svg>
