<svg width="711" height="91" viewBox="0 0 711 91" fill="none" xmlns="http://www.w3.org/2000/svg">
<path d="M0.677501 91V0.119995H30.8855C45.3922 0.119995 56.5282 4.08799 64.2935 12.024C72.1442 19.8747 76.0695 31.096 76.0695 45.688C76.0695 60.1947 72.2295 71.3733 64.5495 79.224C56.8695 87.0747 45.9042 91 31.6535 91H0.677501ZM17.3175 76.536H30.8855C40.3575 76.536 47.3975 73.976 52.0055 68.856C56.6135 63.736 58.9175 56.0133 58.9175 45.688C58.9175 35.192 56.6135 27.384 52.0055 22.264C47.3975 17.144 40.3575 14.584 30.8855 14.584H17.3175V76.536ZM89.8025 91V0.119995H106.443V91H89.8025ZM124.928 91V0.119995H162.944C169.514 0.119995 175.189 1.22933 179.968 3.448C184.746 5.66666 188.458 8.82399 191.104 12.92C193.749 17.016 195.072 21.8373 195.072 27.384C195.072 31.5653 194.176 35.2773 192.384 38.52C190.592 41.7627 188.16 44.3653 185.088 46.328C182.101 48.2907 178.773 49.4853 175.104 49.912L174.464 48.632C180.352 48.632 184.874 49.9547 188.032 52.6C191.274 55.2453 193.109 59.2987 193.536 64.76L195.84 91H178.944L177.024 67.192C176.768 63.608 175.616 60.9627 173.568 59.256C171.52 57.5493 168.106 56.696 163.328 56.696H141.568V91H124.928ZM141.568 42.104H161.92C166.954 42.104 170.88 40.9093 173.696 38.52C176.512 36.1307 177.92 32.76 177.92 28.408C177.92 23.9707 176.469 20.5573 173.568 18.168C170.752 15.7787 166.613 14.584 161.152 14.584H141.568V42.104ZM229.744 91V14.584H202.096V0.119995H273.904V14.584H246.384V91H229.744ZM307.411 91V55.16L275.666 0.119995H294.355L315.859 38.776L337.235 0.119995H355.923L324.179 55.16V91H307.411ZM414.369 91L390.049 0.119995H407.585L424.225 67.96L440.993 0.119995H456.481L473.249 67.96L489.761 0.119995H507.425L483.105 91H464.673L448.801 28.792L432.929 91H414.369ZM519.178 91V0.119995H535.818V91H519.178ZM554.303 91V0.119995H573.759L612.927 68.472V0.119995H629.567V91H609.599L570.943 24.568V91H554.303ZM648.053 91V0.119995H709.237V14.584H664.693V38.264H707.701V52.6H664.693V76.536H710.261V91H648.053Z" fill="white"/>
</svg>
